HIERARCHY
ROOT Hips
{
  OFFSET 0.000 66.367 0.000
  CHANNELS 6 Xposition Yposition Zposition Zrotation Xrotation Yrotation
  JOINT LeftUpLeg
  {
    OFFSET 7.866 0.994 2.978
    CHANNELS 6 Xposition Yposition Zposition Zrotation Xrotation Yrotation
    JOINT LeftLeg
    {
      OFFSET 0.000 -35.992 0.000
      CHANNELS 6 Xposition Yposition Zposition Zrotation Xrotation Yrotation
      JOINT LeftFoot
      {
        OFFSET 0.000 -31.369 0.000
        CHANNELS 6 Xposition Yposition Zposition Zrotation Xrotation Yrotation
        End Site
        {
          OFFSET 0.000 0.000 9.548
        }
      }
    }
  }
  JOINT RightUpLeg
  {
    OFFSET -7.866 0.994 2.978
    CHANNELS 6 Xposition Yposition Zposition Zrotation Xrotation Yrotation
    JOINT RightLeg
    {
      OFFSET 0.000 -35.992 0.000
      CHANNELS 6 Xposition Yposition Zposition Zrotation Xrotation Yrotation
      JOINT RightFoot
      {
        OFFSET 0.000 -31.369 0.000
        CHANNELS 6 Xposition Yposition Zposition Zrotation Xrotation Yrotation
        End Site
        {
          OFFSET 0.000 0.000 9.548
        }
      }
    }
  }
  JOINT Spine
  {
    OFFSET 0.000 30.810 0.000
    CHANNELS 6 Xposition Yposition Zposition Zrotation Xrotation Yrotation
    JOINT Spine1
    {
      OFFSET 0.000 22.563 0.000
      CHANNELS 6 Xposition Yposition Zposition Zrotation Xrotation Yrotation
      JOINT LeftShoulder
      {
        OFFSET 1.773 -0.330 0.013
        CHANNELS 6 Xposition Yposition Zposition Zrotation Xrotation Yrotation
        JOINT LeftArm
        {
          OFFSET 16.216 0.000 0.000
          CHANNELS 6 Xposition Yposition Zposition Zrotation Xrotation Yrotation
          JOINT LeftForeArm
          {
            OFFSET 22.333 0.000 0.000
            CHANNELS 6 Xposition Yposition Zposition Zrotation Xrotation Yrotation
            JOINT LeftHand
            {
              OFFSET 22.521 0.000 0.000
              CHANNELS 6 Xposition Yposition Zposition Zrotation Xrotation Yrotation
              JOINT LeftHandThumb1
              {
                OFFSET 4.877 -1.044 3.608
                CHANNELS 6 Xposition Yposition Zposition Zrotation Xrotation Yrotation
                JOINT LeftHandThumb2
                {
                  OFFSET 2.665 0.000 0.000
                  CHANNELS 6 Xposition Yposition Zposition Zrotation Xrotation Yrotation
                  JOINT LeftHandThumb3
                  {
                    OFFSET 2.543 0.000 0.000
                    CHANNELS 6 Xposition Yposition Zposition Zrotation Xrotation Yrotation
                    End Site
                    {
                      OFFSET 2.667 0.000 0.000
                    }
                  }
                }
              }
              JOINT LeftHandIndex1
              {
                OFFSET 9.232 -0.301 2.144
                CHANNELS 6 Xposition Yposition Zposition Zrotation Xrotation Yrotation
                JOINT LeftHandIndex2
                {
                  OFFSET 4.225 0.000 -0.000
                  CHANNELS 6 Xposition Yposition Zposition Zrotation Xrotation Yrotation
                  JOINT LeftHandIndex3
                  {
                    OFFSET 2.654 0.000 0.000
                    CHANNELS 6 Xposition Yposition Zposition Zrotation Xrotation Yrotation
                    End Site
                    {
                      OFFSET 1.958 0.000 0.000
                    }
                  }
                }
              }
              JOINT LeftHandMiddle1
              {
                OFFSET 8.920 -0.000 0.000
                CHANNELS 6 Xposition Yposition Zposition Zrotation Xrotation Yrotation
                JOINT LeftHandMiddle2
                {
                  OFFSET 4.863 0.000 0.000
                  CHANNELS 6 Xposition Yposition Zposition Zrotation Xrotation Yrotation
                  JOINT LeftHandMiddle3
                  {
                    OFFSET 2.765 0.000 0.000
                    CHANNELS 6 Xposition Yposition Zposition Zrotation Xrotation Yrotation
                    End Site
                    {
                      OFFSET 2.006 -0.000 -0.000
                    }
                  }
                }
              }
              JOINT LeftHandRing1
              {
                OFFSET 8.689 -0.126 -2.087
                CHANNELS 6 Xposition Yposition Zposition Zrotation Xrotation Yrotation
                JOINT LeftHandRing2
                {
                  OFFSET 4.538 0.000 0.000
                  CHANNELS 6 Xposition Yposition Zposition Zrotation Xrotation Yrotation
                  JOINT LeftHandRing3
                  {
                    OFFSET 2.305 0.000 -0.000
                    CHANNELS 6 Xposition Yposition Zposition Zrotation Xrotation Yrotation
                    End Site
                    {
                      OFFSET 1.923 -0.000 0.000
                    }
                  }
                }
              }
              JOINT LeftHandPinky1
              {
                OFFSET 8.391 -0.817 -3.758
                CHANNELS 6 Xposition Yposition Zposition Zrotation Xrotation Yrotation
                JOINT LeftHandPinky2
                {
                  OFFSET 3.044 0.000 0.000
                  CHANNELS 6 Xposition Yposition Zposition Zrotation Xrotation Yrotation
                  JOINT LeftHandPinky3
                  {
                    OFFSET 1.975 0.000 -0.000
                    CHANNELS 6 Xposition Yposition Zposition Zrotation Xrotation Yrotation
                    End Site
                    {
                      OFFSET 1.667 -0.000 0.000
                    }
                  }
                }
              }
            }
          }
        }
      }
      JOINT RightShoulder
      {
        OFFSET -1.773 -0.330 0.013
        CHANNELS 6 Xposition Yposition Zposition Zrotation Xrotation Yrotation
        JOINT RightArm
        {
          OFFSET -16.216 0.000 0.000
          CHANNELS 6 Xposition Yposition Zposition Zrotation Xrotation Yrotation
          JOINT RightForeArm
          {
            OFFSET -22.333 0.000 0.000
            CHANNELS 6 Xposition Yposition Zposition Zrotation Xrotation Yrotation
            JOINT RightHand
            {
              OFFSET -22.521 0.000 0.000
              CHANNELS 6 Xposition Yposition Zposition Zrotation Xrotation Yrotation
              JOINT RightHandThumb1
              {
                OFFSET -4.877 -1.044 3.608
                CHANNELS 6 Xposition Yposition Zposition Zrotation Xrotation Yrotation
                JOINT RightHandThumb2
                {
                  OFFSET -2.665 -0.000 -0.000
                  CHANNELS 6 Xposition Yposition Zposition Zrotation Xrotation Yrotation
                  JOINT RightHandThumb3
                  {
                    OFFSET -2.543 0.000 0.000
                    CHANNELS 6 Xposition Yposition Zposition Zrotation Xrotation Yrotation
                    End Site
                    {
                      OFFSET -2.667 -0.000 -0.000
                    }
                  }
                }
              }
              JOINT RightHandIndex1
              {
                OFFSET -9.232 -0.301 2.144
                CHANNELS 6 Xposition Yposition Zposition Zrotation Xrotation Yrotation
                JOINT RightHandIndex2
                {
                  OFFSET -4.225 0.000 0.000
                  CHANNELS 6 Xposition Yposition Zposition Zrotation Xrotation Yrotation
                  JOINT RightHandIndex3
                  {
                    OFFSET -2.654 0.000 0.000
                    CHANNELS 6 Xposition Yposition Zposition Zrotation Xrotation Yrotation
                    End Site
                    {
                      OFFSET -1.958 0.000 -0.000
                    }
                  }
                }
              }
              JOINT RightHandMiddle1
              {
                OFFSET -8.920 0.000 0.000
                CHANNELS 6 Xposition Yposition Zposition Zrotation Xrotation Yrotation
                JOINT RightHandMiddle2
                {
                  OFFSET -4.863 0.000 -0.000
                  CHANNELS 6 Xposition Yposition Zposition Zrotation Xrotation Yrotation
                  JOINT RightHandMiddle3
                  {
                    OFFSET -2.765 -0.000 -0.000
                    CHANNELS 6 Xposition Yposition Zposition Zrotation Xrotation Yrotation
                    End Site
                    {
                      OFFSET -2.006 0.000 0.000
                    }
                  }
                }
              }
              JOINT RightHandRing1
              {
                OFFSET -8.689 -0.126 -2.087
                CHANNELS 6 Xposition Yposition Zposition Zrotation Xrotation Yrotation
                JOINT RightHandRing2
                {
                  OFFSET -4.538 0.000 0.000
                  CHANNELS 6 Xposition Yposition Zposition Zrotation Xrotation Yrotation
                  JOINT RightHandRing3
                  {
                    OFFSET -2.305 0.000 0.000
                    CHANNELS 6 Xposition Yposition Zposition Zrotation Xrotation Yrotation
                    End Site
                    {
                      OFFSET -1.923 0.000 0.000
                    }
                  }
                }
              }
              JOINT RightHandPinky1
              {
                OFFSET -8.391 -0.817 -3.758
                CHANNELS 6 Xposition Yposition Zposition Zrotation Xrotation Yrotation
                JOINT RightHandPinky2
                {
                  OFFSET -3.044 0.000 0.000
                  CHANNELS 6 Xposition Yposition Zposition Zrotation Xrotation Yrotation
                  JOINT RightHandPinky3
                  {
                    OFFSET -1.975 0.000 0.000
                    CHANNELS 6 Xposition Yposition Zposition Zrotation Xrotation Yrotation
                    End Site
                    {
                      OFFSET -1.667 0.000 0.000
                    }
                  }
                }
              }
            }
          }
        }
      }
      JOINT Neck
      {
        OFFSET 0.000 0.744 0.000
        CHANNELS 6 Xposition Yposition Zposition Zrotation Xrotation Yrotation
        JOINT Head
        {
          OFFSET 0.000 6.706 0.000
          CHANNELS 6 Xposition Yposition Zposition Zrotation Xrotation Yrotation
          End Site
          {
            OFFSET 0.000 13.787 0.000
          }
        }
      }
    }
  }
}
MOTION
Frames:	4
Frame Time:	0.033333
0.69872 78.42857 -236.04288 -1.14925 1.20997 -3.24263 7.77495 0.66385 3.38788 -1.05211 4.85975 -11.97180 0.00181 -36.93500 -0.00276 3.00362 -2.56805 22.96476 -0.00914 -32.36146 0.00357 -5.13381 33.69450 9.18534 -7.51570 0.29631 3.39816 -1.35460 -0.38871 -15.86888 -0.02957 -38.34441 0.00592 -4.64640 -1.94778 -0.28031 0.02251 -32.08659 -0.01522 -2.41338 30.73947 4.71925 0.00848 30.83739 0.00500 -0.02897 1.89190 0.08610 0.00168 22.64841 0.00542 -0.07978 2.33019 0.19019 1.79262 -0.33560 0.02506 -10.68139 0.11758 -0.64238 16.54251 -0.00824 0.00728 -66.92034 1.97914 -6.45554 25.13691 0.03149 -0.00907 -10.34779 6.42882 -14.03186 23.75326 -0.04862 0.03781 -9.70607 11.43392 -8.87462 4.87701 -1.04399 3.60801 -41.57594 -8.45725 -7.72881 2.66500 0.00000 0.00001 0.00000 -0.00000 5.00000 2.54300 0.00000 0.00001 -0.00001 0.00000 60.00001 9.23202 -0.30100 2.14403 -80.00000 -0.00000 0.00000 4.22500 0.00001 -0.00001 -90.00000 -0.00000 -0.00000 2.65399 0.00000 0.00001 -70.00000 -0.00000 -0.00000 8.92000 -0.00001 0.00000 -80.00000 -0.00000 0.00000 4.86299 0.00001 0.00001 -90.00000 -0.00000 -0.00000 2.76501 0.00001 0.00000 -70.00000 -0.00000 -0.00000 8.68900 -0.12599 -2.08697 -80.00000 -0.00000 0.00000 4.53799 0.00001 0.00001 -90.00000 -0.00000 -0.00000 2.30501 0.00002 -0.00002 -70.00000 -0.00000 -0.00000 8.39100 -0.81700 -3.75798 -80.00000 -0.00000 0.00000 3.04400 0.00000 0.00000 -90.00000 -0.00000 -0.00000 1.97501 0.00001 -0.00001 -70.00000 -0.00000 -0.00000 -1.78909 -0.56154 0.02332 17.69864 0.20190 0.63444 -16.74746 -0.00645 0.00544 61.64729 2.22790 1.36100 -24.93972 -0.00732 -0.00428 3.42209 -0.31751 23.17803 -22.04249 -0.00273 0.01041 8.50948 -1.35525 8.97024 -4.87701 -1.04400 3.60800 27.96226 6.55870 5.77752 -2.66498 -0.00001 -0.00001 -0.00000 -0.00000 -8.84408 -2.54301 0.00001 0.00001 0.00000 0.00000 -25.40322 -9.23200 -0.30100 2.14398 14.91398 -0.00000 -0.00000 -4.22502 0.00000 0.00002 18.75807 -0.00001 0.00000 -2.65400 0.00000 0.00000 22.55640 1.47645 3.54963 -8.92000 0.00000 0.00000 33.87095 -0.00001 -0.00000 -4.86300 0.00000 -0.00001 40.02687 -0.00001 -0.00000 -2.76500 -0.00002 -0.00002 39.18409 2.43094 2.97874 -8.68900 -0.12600 -2.08702 33.87095 -0.00001 -0.00000 -4.53801 0.00000 0.00002 40.02687 -0.00001 -0.00000 -2.30501 0.00002 0.00001 39.18409 2.43094 2.97874 -8.39100 -0.81700 -3.75801 14.91398 -0.00000 -0.00000 -3.04400 0.00000 0.00001 18.75807 -0.00001 0.00000 -1.97500 0.00000 0.00001 22.55640 1.47645 3.54963 0.00007 0.74099 0.00599 0.00002 0.00023 0.00216 -0.01873 6.68937 0.01343 6.53256 15.42920 -14.52336 
0.40804 78.39818 -235.96130 -1.19691 1.13711 -3.14901 7.76148 0.68003 3.38788 -0.83080 5.01405 -11.50699 0.00181 -37.06372 -0.00276 3.18023 -2.64286 22.72969 -0.00914 -32.36057 0.00357 -4.68912 33.16405 8.52500 -7.51570 0.27107 3.39816 -0.93010 0.18774 -15.36576 -0.02467 -38.36753 0.00592 -4.82621 -2.84476 -0.53958 0.01719 -31.97089 -0.01522 -2.26173 31.32994 4.34911 0.00848 30.89756 0.00500 -0.02664 1.89190 0.01555 0.00168 22.69006 0.00542 -0.07683 2.33020 0.11774 1.78280 -0.34106 0.03023 -10.90347 0.15588 -0.82915 16.47511 -0.00824 0.00728 -66.79194 1.73571 -6.66246 25.15050 0.03149 -0.00907 -10.42619 6.66885 -13.90767 23.63681 -0.04862 0.03781 -9.13065 11.85867 -8.52763 4.87701 -1.04399 3.60801 -41.57594 -8.45725 -7.72881 2.66500 0.00000 0.00001 0.00000 -0.00000 5.00000 2.54300 0.00000 0.00001 -0.00001 0.00000 60.00001 9.23202 -0.30100 2.14403 -80.00000 -0.00000 0.00000 4.22500 0.00001 -0.00001 -90.00000 -0.00000 -0.00000 2.65399 0.00000 0.00001 -70.00000 -0.00000 -0.00000 8.92000 -0.00001 0.00000 -80.00000 -0.00000 0.00000 4.86299 0.00001 0.00001 -90.00000 -0.00000 -0.00000 2.76501 0.00001 0.00000 -70.00000 -0.00000 -0.00000 8.68900 -0.12599 -2.08697 -80.00000 -0.00000 0.00000 4.53799 0.00001 0.00001 -90.00000 -0.00000 -0.00000 2.30501 0.00002 -0.00002 -70.00000 -0.00000 -0.00000 8.39100 -0.81700 -3.75798 -80.00000 -0.00000 0.00000 3.04400 0.00000 0.00000 -90.00000 -0.00000 -0.00000 1.97501 0.00001 -0.00001 -70.00000 -0.00000 -0.00000 -1.78909 -0.57292 0.02872 18.01053 0.26201 0.80797 -16.79694 -0.00645 0.00544 61.74854 2.32282 1.47039 -24.94781 -0.00732 -0.00428 3.31129 -0.37895 22.96275 -22.03419 -0.00273 0.01041 8.30221 -1.41293 8.89707 -4.87701 -1.04400 3.60800 26.53689 5.61664 7.14474 -2.66498 -0.00001 -0.00001 -0.00000 -0.00000 -9.32891 -2.54301 0.00001 0.00001 0.00000 0.00000 -21.03980 -9.23200 -0.30100 2.14398 17.04721 -0.00000 -0.00000 -4.22502 0.00000 0.00002 21.37612 -0.00001 0.00000 -2.65400 0.00000 0.00000 25.64110 1.87565 3.90229 -8.92000 0.00000 0.00000 28.05306 -0.00001 -0.00000 -4.86300 0.00000 -0.00001 33.72416 -0.00001 -0.00000 -2.76500 -0.00002 -0.00002 35.29145 2.50487 3.53194 -8.68900 -0.12600 -2.08702 28.05306 -0.00001 -0.00000 -4.53801 0.00000 0.00002 33.72416 -0.00001 -0.00000 -2.30501 0.00002 0.00001 35.29145 2.50487 3.53194 -8.39100 -0.81700 -3.75801 17.04721 -0.00000 -0.00000 -3.04400 0.00000 0.00001 21.37612 -0.00001 0.00000 -1.97500 0.00000 0.00001 25.64110 1.87565 3.90229 0.00007 0.74099 0.00599 0.00002 0.00023 0.00216 -0.01873 6.70120 0.01343 6.91442 15.17473 -14.96128 
0.17205 78.38071 -235.88832 -1.23066 1.06888 -3.09712 7.75837 0.69219 3.38788 -0.78408 5.12945 -11.29302 0.00181 -37.10612 -0.00276 3.54437 -2.52992 22.70594 -0.00914 -32.32879 0.00357 -4.43869 33.32993 8.05346 -7.51388 0.25169 3.39816 -0.61733 0.64363 -14.96210 -0.02030 -38.37907 0.00592 -4.92633 -3.49996 -0.72954 0.01329 -31.89734 -0.01522 -2.18875 31.62034 4.17475 0.00848 30.93938 0.00500 -0.02485 1.89190 -0.03889 0.00168 22.71915 0.00542 -0.07455 2.33020 0.06148 1.77623 -0.34554 0.03545 -11.07232 0.19376 -1.01135 16.43164 -0.00824 0.00728 -66.63327 1.62746 -6.78621 25.16048 0.02769 -0.00907 -10.46265 6.91102 -13.88180 23.57043 -0.04862 0.03781 -8.49848 12.14429 -8.27074 4.87701 -1.04399 3.60801 -41.57594 -8.45725 -7.72881 2.66500 0.00000 0.00001 0.00000 -0.00000 5.00000 2.54300 0.00000 0.00001 -0.00001 0.00000 60.00001 9.23202 -0.30100 2.14403 -80.00000 -0.00000 0.00000 4.22500 0.00001 -0.00001 -90.00000 -0.00000 -0.00000 2.65399 0.00000 0.00001 -70.00000 -0.00000 -0.00000 8.92000 -0.00001 0.00000 -80.00000 -0.00000 0.00000 4.86299 0.00001 0.00001 -90.00000 -0.00000 -0.00000 2.76501 0.00001 0.00000 -70.00000 -0.00000 -0.00000 8.68900 -0.12599 -2.08697 -80.00000 -0.00000 0.00000 4.53799 0.00001 0.00001 -90.00000 -0.00000 -0.00000 2.30501 0.00002 -0.00002 -70.00000 -0.00000 -0.00000 8.39100 -0.81700 -3.75798 -80.00000 -0.00000 0.00000 3.04400 0.00000 0.00000 -90.00000 -0.00000 -0.00000 1.97501 0.00001 -0.00001 -70.00000 -0.00000 -0.00000 -1.78909 -0.58193 0.03399 18.23638 0.32085 0.97664 -16.84924 -0.00645 0.00544 61.87041 2.41961 1.57433 -24.95515 -0.00732 -0.00428 3.22490 -0.42911 22.74467 -22.01495 -0.00180 0.01041 8.10634 -1.47613 9.04637 -4.87701 -1.04400 3.60800 25.80121 5.08756 7.88510 -2.66498 -0.00001 -0.00001 -0.00000 -0.00000 -9.58760 -2.54301 0.00001 0.00001 0.00000 0.00000 -18.71155 -9.23200 -0.30100 2.14398 18.18547 -0.00000 -0.00000 -4.22502 0.00000 0.00002 22.77306 -0.00001 0.00000 -2.65400 0.00000 0.00000 27.28569 2.10646 4.07639 -8.92000 0.00000 0.00000 24.94873 -0.00001 -0.00000 -4.86300 0.00000 -0.00001 30.36112 -0.00001 -0.00000 -2.76500 -0.00002 -0.00002 33.21482 2.51704 3.83677 -8.68900 -0.12600 -2.08702 24.94873 -0.00001 -0.00000 -4.53801 0.00000 0.00002 30.36112 -0.00001 -0.00000 -2.30501 0.00002 0.00001 33.21482 2.51704 3.83677 -8.39100 -0.81700 -3.75801 18.18547 -0.00000 -0.00000 -3.04400 0.00000 0.00001 22.77306 -0.00001 0.00000 -1.97500 0.00000 0.00001 27.28569 2.10646 4.07639 0.00007 0.74099 0.00599 0.00002 0.00023 0.00216 -0.01873 6.70898 0.01343 7.26882 14.91034 -15.40183 
-0.06454 78.36516 -235.81706 -1.29286 1.00493 -3.15693 7.75679 0.70765 3.38788 -0.72290 5.25966 -11.01922 0.00181 -37.10752 -0.00276 3.93020 -2.43176 22.69885 -0.00914 -32.34306 0.00357 -4.19901 33.47582 7.60492 -7.49936 0.23018 3.39816 -0.34576 1.05457 -14.55207 -0.01566 -38.37823 0.00592 -4.89718 -4.00773 -0.85036 0.00961 -31.85699 -0.01263 -2.06021 31.60133 3.93258 0.00848 30.97690 0.00500 -0.02420 1.88925 -0.05849 0.00168 22.74407 0.00542 -0.07368 2.32747 0.04016 1.76920 -0.34841 0.04056 -11.18109 0.22986 -1.18567 16.37268 -0.00713 0.00728 -66.42062 1.56125 -6.79433 25.16742 0.02401 -0.00907 -10.53181 7.07286 -14.00473 23.56349 -0.04862 0.03781 -7.67924 11.92300 -7.86385 4.87701 -1.04399 3.60801 -41.57594 -8.45725 -7.72881 2.66500 0.00000 0.00001 0.00000 -0.00000 5.00000 2.54300 0.00000 0.00001 -0.00001 0.00000 60.00001 9.23202 -0.30100 2.14403 -80.00000 -0.00000 0.00000 4.22500 0.00001 -0.00001 -90.00000 -0.00000 -0.00000 2.65399 0.00000 0.00001 -70.00000 -0.00000 -0.00000 8.92000 -0.00001 0.00000 -80.00000 -0.00000 0.00000 4.86299 0.00001 0.00001 -90.00000 -0.00000 -0.00000 2.76501 0.00001 0.00000 -70.00000 -0.00000 -0.00000 8.68900 -0.12599 -2.08697 -80.00000 -0.00000 0.00000 4.53799 0.00001 0.00001 -90.00000 -0.00000 -0.00000 2.30501 0.00002 -0.00002 -70.00000 -0.00000 -0.00000 8.39100 -0.81700 -3.75798 -80.00000 -0.00000 0.00000 3.04400 0.00000 0.00000 -90.00000 -0.00000 -0.00000 1.97501 0.00001 -0.00001 -70.00000 -0.00000 -0.00000 -1.78928 -0.59047 0.03906 18.45222 0.37763 1.13482 -16.89125 -0.00645 0.00544 61.94190 2.54825 1.71906 -24.96318 -0.00732 -0.00428 3.23418 -0.44700 22.58004 -22.08960 -0.00143 0.01041 8.02775 -1.49004 8.80742 -4.87701 -1.04400 3.60800 25.35704 4.75315 8.34445 -2.66498 -0.00001 -0.00001 -0.00000 -0.00000 -9.74691 -2.54301 0.00001 0.00001 0.00000 0.00000 -17.27780 -9.23200 -0.30100 2.14398 18.88641 -0.00000 -0.00000 -4.22502 0.00000 0.00002 23.63332 -0.00001 0.00000 -2.65400 0.00000 0.00000 28.29798 2.25424 4.17861 -8.92000 0.00000 0.00000 23.03706 -0.00001 -0.00000 -4.86300 0.00000 -0.00001 28.29015 -0.00001 -0.00000 -2.76500 -0.00002 -0.00002 31.93626 2.51525 4.02708 -8.68900 -0.12600 -2.08702 23.03706 -0.00001 -0.00000 -4.53801 0.00000 0.00002 28.29015 -0.00001 -0.00000 -2.30501 0.00002 0.00001 31.93626 2.51525 4.02708 -8.39100 -0.81700 -3.75801 18.88641 -0.00000 -0.00000 -3.04400 0.00000 0.00001 23.63332 -0.00001 0.00000 -1.97500 0.00000 0.00001 28.29798 2.25424 4.17861 0.00007 0.74099 0.00599 0.00002 0.00023 0.00216 -0.01873 6.71508 0.01343 7.70743 14.57348 -15.69806 
